<svg xmlns="http://www.w3.org/2000/svg" viewBox="0 0 40 40" width="40" height="40">
  <defs>
    <linearGradient id="g" x1="0%" y1="0%" x2="100%" y2="100%">
      <stop offset="0%" stop-color="#00D4FF"/>
      <stop offset="100%" stop-color="#7C3AED"/>
    </linearGradient>
  </defs>
  <!-- Ghost body -->
  <ellipse cx="20" cy="16" rx="12" ry="13" fill="url(#g)"/>
  <rect x="8" y="16" width="24" height="12" fill="url(#g)"/>
  <!-- Wavy bottom -->
  <path d="M8 28 Q11 32 14 28 Q17 32 20 28 Q23 32 26 28 Q29 32 32 28 L32 36 Q29 40 26 36 Q23 40 20 36 Q17 40 14 36 Q11 40 8 36 Z" fill="url(#g)"/>
  <!-- Eyes -->
  <ellipse cx="15" cy="16" rx="3" ry="3.5" fill="#0a0f1a"/>
  <ellipse cx="25" cy="16" rx="3" ry="3.5" fill="#0a0f1a"/>
  <!-- Eye shine -->
  <circle cx="16" cy="14.5" r="1" fill="white" opacity="0.8"/>
  <circle cx="26" cy="14.5" r="1" fill="white" opacity="0.8"/>
</svg>
